<?xml version="1.0" encoding="UTF-8" standalone="no"?>
<!DOCTYPE svg PUBLIC "-//W3C//DTD SVG 1.1//EN" "http://www.w3.org/Graphics/SVG/1.1/DTD/svg11.dtd">
<svg width="100%" height="100%" viewBox="0 0 600 600" version="1.1" xmlns="http://www.w3.org/2000/svg" xmlnsXlink="http://www.w3.org/1999/xlink" xmlSpace="preserve" xmlnsSerif="http://www.serif.com/" style="fill-rule:evenodd;clip-rule:evenodd;stroke-linecap:round;stroke-linejoin:round;stroke-miterlimit:1.5;">
    <g transform="matrix(1,0,0,1,86,52)">
        <circle cx="214" cy="248" r="84" style="fill:rgb(235,235,235);fill-opacity:0;stroke:rgb(174,149,71);stroke-width:20px;"/>
    </g>
    <path d="M30,135L90,489L144,367L188,436L216,300" style="fill:none;stroke:rgb(174,149,71);stroke-width:20px;"/>
    <g transform="matrix(-1,0,0,1,600,0)">
        <path d="M30,135L90,489L144,367L188,436L216,300" style="fill:none;stroke:rgb(174,149,71);stroke-width:20px;"/>
    </g>
    <g transform="matrix(8.42355e-17,-1.38411,1,6.05167e-17,-48,712.009)">
        <path d="M273.5,312C264.945,312 258,328.131 258,348C258,367.869 264.945,384 273.5,384C270.934,375.6 268.85,362.361 268.85,348C268.85,333.639 270.934,320.4 273.5,312Z" style="fill:rgb(235,235,235);fill-opacity:0;stroke:rgb(174,149,71);stroke-width:8.28px;"/>
    </g>
</svg>
